<svg width="566" height="550" viewBox="0 0 566 550" fill="none" xmlns="http://www.w3.org/2000/svg">
<rect width="566" height="550" fill="white"/>
<rect x="222" y="198" width="122" height="63" rx="31.5" fill="#BFE6F7" stroke="#80C1D7" stroke-width="4"/>
<rect x="222" y="318" width="122" height="63" rx="31.5" fill="#484848" stroke="#202020" stroke-width="4"/>
<path d="M118.445 62.2539H112.047V80H109.436V62.2539H103.051V60.0938H118.445V62.2539ZM128.576 80C128.43 79.7083 128.312 79.1888 128.221 78.4414C127.045 79.6628 125.641 80.2734 124.01 80.2734C122.551 80.2734 121.353 79.8633 120.414 79.043C119.484 78.2135 119.02 77.1654 119.02 75.8984C119.02 74.3581 119.603 73.1641 120.77 72.3164C121.945 71.4596 123.595 71.0312 125.719 71.0312H128.18V69.8691C128.18 68.985 127.915 68.2832 127.387 67.7637C126.858 67.235 126.079 66.9707 125.049 66.9707C124.146 66.9707 123.39 67.1986 122.779 67.6543C122.169 68.11 121.863 68.6615 121.863 69.3086H119.32C119.32 68.5703 119.58 67.8594 120.1 67.1758C120.628 66.4831 121.339 65.9362 122.232 65.5352C123.135 65.1341 124.124 64.9336 125.199 64.9336C126.904 64.9336 128.239 65.362 129.205 66.2188C130.171 67.0664 130.673 68.2376 130.709 69.7324V76.541C130.709 77.8991 130.882 78.9792 131.229 79.7812V80H128.576ZM124.379 78.0723C125.172 78.0723 125.924 77.8672 126.635 77.457C127.346 77.0469 127.861 76.5137 128.18 75.8574V72.8223H126.197C123.098 72.8223 121.549 73.7292 121.549 75.543C121.549 76.3359 121.813 76.9557 122.342 77.4023C122.87 77.849 123.549 78.0723 124.379 78.0723ZM134.072 72.4805C134.072 70.1745 134.605 68.3424 135.672 66.9844C136.738 65.6172 138.151 64.9336 139.91 64.9336C141.715 64.9336 143.123 65.5716 144.135 66.8477L144.258 65.207H146.568V79.6445C146.568 81.5586 145.999 83.0671 144.859 84.1699C143.729 85.2728 142.207 85.8242 140.293 85.8242C139.227 85.8242 138.183 85.5964 137.162 85.1406C136.141 84.6849 135.362 84.0605 134.824 83.2676L136.137 81.75C137.221 83.0898 138.548 83.7598 140.115 83.7598C141.346 83.7598 142.303 83.4134 142.986 82.7207C143.679 82.028 144.025 81.0527 144.025 79.7949V78.5234C143.014 79.6901 141.633 80.2734 139.883 80.2734C138.151 80.2734 136.747 79.5762 135.672 78.1816C134.605 76.7871 134.072 74.8867 134.072 72.4805ZM136.615 72.7676C136.615 74.4355 136.957 75.748 137.641 76.7051C138.324 77.653 139.281 78.127 140.512 78.127C142.107 78.127 143.278 77.4023 144.025 75.9531V69.1992C143.251 67.7865 142.089 67.0801 140.539 67.0801C139.309 67.0801 138.347 67.5586 137.654 68.5156C136.962 69.4727 136.615 70.89 136.615 72.7676ZM166.475 78.5371C165.49 79.6947 164.046 80.2734 162.141 80.2734C160.564 80.2734 159.361 79.8177 158.531 78.9062C157.711 77.9857 157.296 76.6276 157.287 74.832V65.207H159.816V74.7637C159.816 77.0059 160.728 78.127 162.551 78.127C164.483 78.127 165.768 77.4069 166.406 75.9668V65.207H168.936V80H166.529L166.475 78.5371ZM175.184 65.207L175.266 67.0664C176.396 65.6445 177.872 64.9336 179.695 64.9336C182.822 64.9336 184.398 66.6973 184.426 70.2246V80H181.896V70.2109C181.887 69.1445 181.641 68.3561 181.158 67.8457C180.684 67.3353 179.941 67.0801 178.93 67.0801C178.109 67.0801 177.389 67.2988 176.77 67.7363C176.15 68.1738 175.667 68.748 175.32 69.459V80H172.791V65.207H175.184ZM187.625 72.4805C187.625 70.2109 188.163 68.388 189.238 67.0117C190.314 65.6263 191.722 64.9336 193.463 64.9336C195.195 64.9336 196.566 65.526 197.578 66.7109V59H200.107V80H197.783L197.66 78.4141C196.648 79.6536 195.24 80.2734 193.436 80.2734C191.722 80.2734 190.323 79.5716 189.238 78.168C188.163 76.7643 187.625 74.9323 187.625 72.6719V72.4805ZM190.154 72.7676C190.154 74.4447 190.501 75.7572 191.193 76.7051C191.886 77.653 192.843 78.127 194.064 78.127C195.669 78.127 196.84 77.4069 197.578 75.9668V69.1719C196.822 67.7773 195.66 67.0801 194.092 67.0801C192.852 67.0801 191.886 67.5586 191.193 68.5156C190.501 69.4727 190.154 70.89 190.154 72.7676ZM226.686 80H224.047L214.025 64.6602V80H211.387V60.0938H214.025L224.074 75.502V60.0938H226.686V80ZM240.084 80C239.938 79.7083 239.82 79.1888 239.729 78.4414C238.553 79.6628 237.149 80.2734 235.518 80.2734C234.059 80.2734 232.861 79.8633 231.922 79.043C230.992 78.2135 230.527 77.1654 230.527 75.8984C230.527 74.3581 231.111 73.1641 232.277 72.3164C233.453 71.4596 235.103 71.0312 237.227 71.0312H239.688V69.8691C239.688 68.985 239.423 68.2832 238.895 67.7637C238.366 67.235 237.587 66.9707 236.557 66.9707C235.654 66.9707 234.898 67.1986 234.287 67.6543C233.676 68.11 233.371 68.6615 233.371 69.3086H230.828C230.828 68.5703 231.088 67.8594 231.607 67.1758C232.136 66.4831 232.847 65.9362 233.74 65.5352C234.643 65.1341 235.632 64.9336 236.707 64.9336C238.411 64.9336 239.747 65.362 240.713 66.2188C241.679 67.0664 242.18 68.2376 242.217 69.7324V76.541C242.217 77.8991 242.39 78.9792 242.736 79.7812V80H240.084ZM235.887 78.0723C236.68 78.0723 237.432 77.8672 238.143 77.457C238.854 77.0469 239.368 76.5137 239.688 75.8574V72.8223H237.705C234.606 72.8223 233.057 73.7292 233.057 75.543C233.057 76.3359 233.321 76.9557 233.85 77.4023C234.378 77.849 235.057 78.0723 235.887 78.0723ZM252.115 78.209C253.018 78.209 253.806 77.9355 254.48 77.3887C255.155 76.8418 255.529 76.1582 255.602 75.3379H257.994C257.949 76.1855 257.657 76.9922 257.119 77.7578C256.581 78.5234 255.861 79.1341 254.959 79.5898C254.066 80.0456 253.118 80.2734 252.115 80.2734C250.101 80.2734 248.497 79.6035 247.303 78.2637C246.118 76.9147 245.525 75.0736 245.525 72.7402V72.3164C245.525 70.8763 245.79 69.5957 246.318 68.4746C246.847 67.3535 247.604 66.4831 248.588 65.8633C249.581 65.2435 250.753 64.9336 252.102 64.9336C253.76 64.9336 255.137 65.4303 256.23 66.4238C257.333 67.4173 257.921 68.707 257.994 70.293H255.602C255.529 69.3359 255.164 68.5521 254.508 67.9414C253.861 67.3216 253.059 67.0117 252.102 67.0117C250.816 67.0117 249.818 67.4766 249.107 68.4062C248.406 69.3268 248.055 70.6621 248.055 72.4121V72.8906C248.055 74.5951 248.406 75.9076 249.107 76.8281C249.809 77.7487 250.812 78.209 252.115 78.209ZM263.367 66.998C264.488 65.6217 265.947 64.9336 267.742 64.9336C270.868 64.9336 272.445 66.6973 272.473 70.2246V80H269.943V70.2109C269.934 69.1445 269.688 68.3561 269.205 67.8457C268.731 67.3353 267.988 67.0801 266.977 67.0801C266.156 67.0801 265.436 67.2988 264.816 67.7363C264.197 68.1738 263.714 68.748 263.367 69.459V80H260.838V59H263.367V66.998ZM279.691 61.625V65.207H282.453V67.1621H279.691V76.3359C279.691 76.9284 279.814 77.375 280.061 77.6758C280.307 77.9674 280.726 78.1133 281.318 78.1133C281.61 78.1133 282.011 78.0586 282.521 77.9492V80C281.856 80.1823 281.209 80.2734 280.58 80.2734C279.45 80.2734 278.598 79.9316 278.023 79.248C277.449 78.5645 277.162 77.5938 277.162 76.3359V67.1621H274.469V65.207H277.162V61.625H279.691ZM305.969 62.2539H299.57V80H296.959V62.2539H290.574V60.0938H305.969V62.2539ZM306.488 72.4668C306.488 71.0176 306.771 69.7142 307.336 68.5566C307.91 67.3991 308.703 66.5059 309.715 65.877C310.736 65.248 311.898 64.9336 313.201 64.9336C315.215 64.9336 316.842 65.6309 318.082 67.0254C319.331 68.4199 319.955 70.2747 319.955 72.5898V72.7676C319.955 74.2077 319.677 75.502 319.121 76.6504C318.574 77.7897 317.786 78.6784 316.756 79.3164C315.735 79.9544 314.559 80.2734 313.229 80.2734C311.223 80.2734 309.596 79.5762 308.348 78.1816C307.108 76.7871 306.488 74.9414 306.488 72.6445V72.4668ZM309.031 72.7676C309.031 74.4082 309.41 75.7253 310.166 76.7188C310.932 77.7122 311.952 78.209 313.229 78.209C314.514 78.209 315.535 77.7077 316.291 76.7051C317.048 75.6934 317.426 74.2806 317.426 72.4668C317.426 70.8444 317.038 69.5319 316.264 68.5293C315.498 67.5176 314.477 67.0117 313.201 67.0117C311.952 67.0117 310.945 67.5085 310.18 68.502C309.414 69.4954 309.031 70.9173 309.031 72.7676ZM322.525 72.4805C322.525 70.1745 323.059 68.3424 324.125 66.9844C325.191 65.6172 326.604 64.9336 328.363 64.9336C330.168 64.9336 331.576 65.5716 332.588 66.8477L332.711 65.207H335.021V79.6445C335.021 81.5586 334.452 83.0671 333.312 84.1699C332.182 85.2728 330.66 85.8242 328.746 85.8242C327.68 85.8242 326.636 85.5964 325.615 85.1406C324.594 84.6849 323.815 84.0605 323.277 83.2676L324.59 81.75C325.674 83.0898 327.001 83.7598 328.568 83.7598C329.799 83.7598 330.756 83.4134 331.439 82.7207C332.132 82.028 332.479 81.0527 332.479 79.7949V78.5234C331.467 79.6901 330.086 80.2734 328.336 80.2734C326.604 80.2734 325.201 79.5762 324.125 78.1816C323.059 76.7871 322.525 74.8867 322.525 72.4805ZM325.068 72.7676C325.068 74.4355 325.41 75.748 326.094 76.7051C326.777 77.653 327.734 78.127 328.965 78.127C330.56 78.127 331.731 77.4023 332.479 75.9531V69.1992C331.704 67.7865 330.542 67.0801 328.992 67.0801C327.762 67.0801 326.8 67.5586 326.107 68.5156C325.415 69.4727 325.068 70.89 325.068 72.7676ZM338.248 72.4805C338.248 70.1745 338.781 68.3424 339.848 66.9844C340.914 65.6172 342.327 64.9336 344.086 64.9336C345.891 64.9336 347.299 65.5716 348.311 66.8477L348.434 65.207H350.744V79.6445C350.744 81.5586 350.174 83.0671 349.035 84.1699C347.905 85.2728 346.383 85.8242 344.469 85.8242C343.402 85.8242 342.359 85.5964 341.338 85.1406C340.317 84.6849 339.538 84.0605 339 83.2676L340.312 81.75C341.397 83.0898 342.723 83.7598 344.291 83.7598C345.521 83.7598 346.479 83.4134 347.162 82.7207C347.855 82.028 348.201 81.0527 348.201 79.7949V78.5234C347.189 79.6901 345.809 80.2734 344.059 80.2734C342.327 80.2734 340.923 79.5762 339.848 78.1816C338.781 76.7871 338.248 74.8867 338.248 72.4805ZM340.791 72.7676C340.791 74.4355 341.133 75.748 341.816 76.7051C342.5 77.653 343.457 78.127 344.688 78.127C346.283 78.127 347.454 77.4023 348.201 75.9531V69.1992C347.426 67.7865 346.264 67.0801 344.715 67.0801C343.484 67.0801 342.523 67.5586 341.83 68.5156C341.137 69.4727 340.791 70.89 340.791 72.7676ZM357.32 80H354.791V59H357.32V80ZM367.52 80.2734C365.514 80.2734 363.883 79.6172 362.625 78.3047C361.367 76.9831 360.738 75.2194 360.738 73.0137V72.5488C360.738 71.0814 361.016 69.7734 361.572 68.625C362.137 67.4674 362.921 66.5651 363.924 65.918C364.936 65.2617 366.029 64.9336 367.205 64.9336C369.128 64.9336 370.623 65.5671 371.689 66.834C372.756 68.1009 373.289 69.9147 373.289 72.2754V73.3281H363.268C363.304 74.7865 363.728 75.9668 364.539 76.8691C365.359 77.7624 366.398 78.209 367.656 78.209C368.549 78.209 369.306 78.0267 369.926 77.6621C370.546 77.2975 371.088 76.8145 371.553 76.2129L373.098 77.416C371.858 79.321 369.999 80.2734 367.52 80.2734ZM367.205 67.0117C366.184 67.0117 365.327 67.3854 364.635 68.1328C363.942 68.8711 363.514 69.9102 363.35 71.25H370.76V71.0586C370.687 69.7734 370.34 68.7799 369.721 68.0781C369.101 67.3672 368.262 67.0117 367.205 67.0117ZM383.57 80V60.0938H390.078C392.238 60.0938 393.861 60.5404 394.945 61.4336C396.039 62.3268 396.586 63.6484 396.586 65.3984C396.586 66.3281 396.322 67.153 395.793 67.873C395.264 68.584 394.544 69.1354 393.633 69.5273C394.708 69.8281 395.556 70.4023 396.176 71.25C396.805 72.0885 397.119 73.0911 397.119 74.2578C397.119 76.0443 396.54 77.4479 395.383 78.4688C394.225 79.4896 392.589 80 390.475 80H383.57ZM386.195 70.6895V77.8535H390.529C391.751 77.8535 392.712 77.5391 393.414 76.9102C394.125 76.2721 394.48 75.3971 394.48 74.2852C394.48 71.888 393.177 70.6895 390.57 70.6895H386.195ZM386.195 68.584H390.16C391.309 68.584 392.225 68.2969 392.908 67.7227C393.601 67.1484 393.947 66.3691 393.947 65.3848C393.947 64.291 393.628 63.498 392.99 63.0059C392.352 62.5046 391.382 62.2539 390.078 62.2539H386.195V68.584ZM409.752 78.5371C408.768 79.6947 407.323 80.2734 405.418 80.2734C403.841 80.2734 402.638 79.8177 401.809 78.9062C400.988 77.9857 400.574 76.6276 400.564 74.832V65.207H403.094V74.7637C403.094 77.0059 404.005 78.127 405.828 78.127C407.76 78.127 409.046 77.4069 409.684 75.9668V65.207H412.213V80H409.807L409.752 78.5371ZM419.5 61.625V65.207H422.262V67.1621H419.5V76.3359C419.5 76.9284 419.623 77.375 419.869 77.6758C420.115 77.9674 420.535 78.1133 421.127 78.1133C421.419 78.1133 421.82 78.0586 422.33 77.9492V80C421.665 80.1823 421.018 80.2734 420.389 80.2734C419.258 80.2734 418.406 79.9316 417.832 79.248C417.258 78.5645 416.971 77.5938 416.971 76.3359V67.1621H414.277V65.207H416.971V61.625H419.5ZM428.66 61.625V65.207H431.422V67.1621H428.66V76.3359C428.66 76.9284 428.783 77.375 429.029 77.6758C429.275 77.9674 429.695 78.1133 430.287 78.1133C430.579 78.1133 430.98 78.0586 431.49 77.9492V80C430.825 80.1823 430.178 80.2734 429.549 80.2734C428.419 80.2734 427.566 79.9316 426.992 79.248C426.418 78.5645 426.131 77.5938 426.131 76.3359V67.1621H423.438V65.207H426.131V61.625H428.66ZM433.445 72.4668C433.445 71.0176 433.728 69.7142 434.293 68.5566C434.867 67.3991 435.66 66.5059 436.672 65.877C437.693 65.248 438.855 64.9336 440.158 64.9336C442.173 64.9336 443.799 65.6309 445.039 67.0254C446.288 68.4199 446.912 70.2747 446.912 72.5898V72.7676C446.912 74.2077 446.634 75.502 446.078 76.6504C445.531 77.7897 444.743 78.6784 443.713 79.3164C442.692 79.9544 441.516 80.2734 440.186 80.2734C438.18 80.2734 436.553 79.5762 435.305 78.1816C434.065 76.7871 433.445 74.9414 433.445 72.6445V72.4668ZM435.988 72.7676C435.988 74.4082 436.367 75.7253 437.123 76.7188C437.889 77.7122 438.91 78.209 440.186 78.209C441.471 78.209 442.492 77.7077 443.248 76.7051C444.005 75.6934 444.383 74.2806 444.383 72.4668C444.383 70.8444 443.995 69.5319 443.221 68.5293C442.455 67.5176 441.434 67.0117 440.158 67.0117C438.91 67.0117 437.902 67.5085 437.137 68.502C436.371 69.4954 435.988 70.9173 435.988 72.7676ZM452.477 65.207L452.559 67.0664C453.689 65.6445 455.165 64.9336 456.988 64.9336C460.115 64.9336 461.691 66.6973 461.719 70.2246V80H459.189V70.2109C459.18 69.1445 458.934 68.3561 458.451 67.8457C457.977 67.3353 457.234 67.0801 456.223 67.0801C455.402 67.0801 454.682 67.2988 454.062 67.7363C453.443 68.1738 452.96 68.748 452.613 69.459V80H450.084V65.207H452.477Z" fill="#484848"/>
<circle cx="312" cy="229" r="24" fill="#F5ED28" stroke="#E4C63F" stroke-width="4"/>
<circle cx="254" cy="350" r="24" fill="#FFFDF1" stroke="#E1E5C4" stroke-width="4"/>
<path d="M255.072 178V169.469H257.48C258.223 169.469 258.879 169.633 259.449 169.961C260.02 170.289 260.459 170.756 260.768 171.361C261.08 171.967 261.238 172.662 261.242 173.447V173.992C261.242 174.797 261.086 175.502 260.773 176.107C260.465 176.713 260.021 177.178 259.443 177.502C258.869 177.826 258.199 177.992 257.434 178H255.072ZM256.197 170.395V177.08H257.381C258.248 177.08 258.922 176.811 259.402 176.271C259.887 175.732 260.129 174.965 260.129 173.969V173.471C260.129 172.502 259.9 171.75 259.443 171.215C258.99 170.676 258.346 170.402 257.51 170.395H256.197ZM266.691 178C266.629 177.875 266.578 177.652 266.539 177.332C266.035 177.855 265.434 178.117 264.734 178.117C264.109 178.117 263.596 177.941 263.193 177.59C262.795 177.234 262.596 176.785 262.596 176.242C262.596 175.582 262.846 175.07 263.346 174.707C263.85 174.34 264.557 174.156 265.467 174.156H266.521V173.658C266.521 173.279 266.408 172.979 266.182 172.756C265.955 172.529 265.621 172.416 265.18 172.416C264.793 172.416 264.469 172.514 264.207 172.709C263.945 172.904 263.814 173.141 263.814 173.418H262.725C262.725 173.102 262.836 172.797 263.059 172.504C263.285 172.207 263.59 171.973 263.973 171.801C264.359 171.629 264.783 171.543 265.244 171.543C265.975 171.543 266.547 171.727 266.961 172.094C267.375 172.457 267.59 172.959 267.605 173.6V176.518C267.605 177.1 267.68 177.562 267.828 177.906V178H266.691ZM264.893 177.174C265.232 177.174 265.555 177.086 265.859 176.91C266.164 176.734 266.385 176.506 266.521 176.225V174.924H265.672C264.344 174.924 263.68 175.312 263.68 176.09C263.68 176.43 263.793 176.695 264.02 176.887C264.246 177.078 264.537 177.174 264.893 177.174ZM271.285 176.412L272.762 171.66H273.922L271.373 178.979C270.979 180.033 270.352 180.561 269.492 180.561L269.287 180.543L268.883 180.467V179.588L269.176 179.611C269.543 179.611 269.828 179.537 270.031 179.389C270.238 179.24 270.408 178.969 270.541 178.574L270.781 177.93L268.52 171.66H269.703L271.285 176.412ZM280.555 174.197C279.59 173.92 278.887 173.58 278.445 173.178C278.008 172.771 277.789 172.271 277.789 171.678C277.789 171.006 278.057 170.451 278.592 170.014C279.131 169.572 279.83 169.352 280.689 169.352C281.275 169.352 281.797 169.465 282.254 169.691C282.715 169.918 283.07 170.23 283.32 170.629C283.574 171.027 283.701 171.463 283.701 171.936H282.57C282.57 171.42 282.406 171.016 282.078 170.723C281.75 170.426 281.287 170.277 280.689 170.277C280.135 170.277 279.701 170.4 279.389 170.646C279.08 170.889 278.926 171.227 278.926 171.66C278.926 172.008 279.072 172.303 279.365 172.545C279.662 172.783 280.164 173.002 280.871 173.201C281.582 173.4 282.137 173.621 282.535 173.863C282.938 174.102 283.234 174.381 283.426 174.701C283.621 175.021 283.719 175.398 283.719 175.832C283.719 176.523 283.449 177.078 282.91 177.496C282.371 177.91 281.65 178.117 280.748 178.117C280.162 178.117 279.615 178.006 279.107 177.783C278.6 177.557 278.207 177.248 277.93 176.857C277.656 176.467 277.52 176.023 277.52 175.527H278.65C278.65 176.043 278.84 176.451 279.219 176.752C279.602 177.049 280.111 177.197 280.748 177.197C281.342 177.197 281.797 177.076 282.113 176.834C282.43 176.592 282.588 176.262 282.588 175.844C282.588 175.426 282.441 175.104 282.148 174.877C281.855 174.646 281.324 174.42 280.555 174.197ZM286.467 170.125V171.66H287.65V172.498H286.467V176.43C286.467 176.684 286.52 176.875 286.625 177.004C286.73 177.129 286.91 177.191 287.164 177.191C287.289 177.191 287.461 177.168 287.68 177.121V178C287.395 178.078 287.117 178.117 286.848 178.117C286.363 178.117 285.998 177.971 285.752 177.678C285.506 177.385 285.383 176.969 285.383 176.43V172.498H284.229V171.66H285.383V170.125H286.467ZM292.836 178C292.773 177.875 292.723 177.652 292.684 177.332C292.18 177.855 291.578 178.117 290.879 178.117C290.254 178.117 289.74 177.941 289.338 177.59C288.939 177.234 288.74 176.785 288.74 176.242C288.74 175.582 288.99 175.07 289.49 174.707C289.994 174.34 290.701 174.156 291.611 174.156H292.666V173.658C292.666 173.279 292.553 172.979 292.326 172.756C292.1 172.529 291.766 172.416 291.324 172.416C290.938 172.416 290.613 172.514 290.352 172.709C290.09 172.904 289.959 173.141 289.959 173.418H288.869C288.869 173.102 288.98 172.797 289.203 172.504C289.43 172.207 289.734 171.973 290.117 171.801C290.504 171.629 290.928 171.543 291.389 171.543C292.119 171.543 292.691 171.727 293.105 172.094C293.52 172.457 293.734 172.959 293.75 173.6V176.518C293.75 177.1 293.824 177.562 293.973 177.906V178H292.836ZM291.037 177.174C291.377 177.174 291.699 177.086 292.004 176.91C292.309 176.734 292.529 176.506 292.666 176.225V174.924H291.816C290.488 174.924 289.824 175.312 289.824 176.09C289.824 176.43 289.938 176.695 290.164 176.887C290.391 177.078 290.682 177.174 291.037 177.174ZM296.92 170.125V171.66H298.104V172.498H296.92V176.43C296.92 176.684 296.973 176.875 297.078 177.004C297.184 177.129 297.363 177.191 297.617 177.191C297.742 177.191 297.914 177.168 298.133 177.121V178C297.848 178.078 297.57 178.117 297.301 178.117C296.816 178.117 296.451 177.971 296.205 177.678C295.959 177.385 295.836 176.969 295.836 176.43V172.498H294.682V171.66H295.836V170.125H296.92ZM302.006 178.117C301.146 178.117 300.447 177.836 299.908 177.273C299.369 176.707 299.1 175.951 299.1 175.006V174.807C299.1 174.178 299.219 173.617 299.457 173.125C299.699 172.629 300.035 172.242 300.465 171.965C300.898 171.684 301.367 171.543 301.871 171.543C302.695 171.543 303.336 171.814 303.793 172.357C304.25 172.9 304.479 173.678 304.479 174.689V175.141H300.184C300.199 175.766 300.381 176.271 300.729 176.658C301.08 177.041 301.525 177.232 302.064 177.232C302.447 177.232 302.771 177.154 303.037 176.998C303.303 176.842 303.535 176.635 303.734 176.377L304.396 176.893C303.865 177.709 303.068 178.117 302.006 178.117ZM301.871 172.434C301.434 172.434 301.066 172.594 300.77 172.914C300.473 173.23 300.289 173.676 300.219 174.25H303.395V174.168C303.363 173.617 303.215 173.191 302.949 172.891C302.684 172.586 302.324 172.434 301.871 172.434Z" fill="black"/>
<path d="M257.252 296H256.121L251.826 289.426V296H250.695V287.469H251.826L256.133 294.072V287.469H257.252V296ZM260.258 296H259.174V289.66H260.258V296ZM259.086 287.979C259.086 287.803 259.139 287.654 259.244 287.533C259.354 287.412 259.514 287.352 259.725 287.352C259.936 287.352 260.096 287.412 260.205 287.533C260.314 287.654 260.369 287.803 260.369 287.979C260.369 288.154 260.314 288.301 260.205 288.418C260.096 288.535 259.936 288.594 259.725 288.594C259.514 288.594 259.354 288.535 259.244 288.418C259.139 288.301 259.086 288.154 259.086 287.979ZM261.74 292.777C261.74 291.789 261.969 291.004 262.426 290.422C262.883 289.836 263.488 289.543 264.242 289.543C265.016 289.543 265.619 289.816 266.053 290.363L266.105 289.66H267.096V295.848C267.096 296.668 266.852 297.314 266.363 297.787C265.879 298.26 265.227 298.496 264.406 298.496C263.949 298.496 263.502 298.398 263.064 298.203C262.627 298.008 262.293 297.74 262.062 297.4L262.625 296.75C263.09 297.324 263.658 297.611 264.33 297.611C264.857 297.611 265.268 297.463 265.561 297.166C265.857 296.869 266.006 296.451 266.006 295.912V295.367C265.572 295.867 264.98 296.117 264.23 296.117C263.488 296.117 262.887 295.818 262.426 295.221C261.969 294.623 261.74 293.809 261.74 292.777ZM262.83 292.9C262.83 293.615 262.977 294.178 263.27 294.588C263.562 294.994 263.973 295.197 264.5 295.197C265.184 295.197 265.686 294.887 266.006 294.266V291.371C265.674 290.766 265.176 290.463 264.512 290.463C263.984 290.463 263.572 290.668 263.275 291.078C262.979 291.488 262.83 292.096 262.83 292.9ZM269.82 290.428C270.301 289.838 270.926 289.543 271.695 289.543C273.035 289.543 273.711 290.299 273.723 291.811V296H272.639V291.805C272.635 291.348 272.529 291.01 272.322 290.791C272.119 290.572 271.801 290.463 271.367 290.463C271.016 290.463 270.707 290.557 270.441 290.744C270.176 290.932 269.969 291.178 269.82 291.482V296H268.736V287H269.82V290.428ZM276.816 288.125V289.66H278V290.498H276.816V294.43C276.816 294.684 276.869 294.875 276.975 295.004C277.08 295.129 277.26 295.191 277.514 295.191C277.639 295.191 277.811 295.168 278.029 295.121V296C277.744 296.078 277.467 296.117 277.197 296.117C276.713 296.117 276.348 295.971 276.102 295.678C275.855 295.385 275.732 294.969 275.732 294.43V290.498H274.578V289.66H275.732V288.125H276.816ZM284.932 292.197C283.967 291.92 283.264 291.58 282.822 291.178C282.385 290.771 282.166 290.271 282.166 289.678C282.166 289.006 282.434 288.451 282.969 288.014C283.508 287.572 284.207 287.352 285.066 287.352C285.652 287.352 286.174 287.465 286.631 287.691C287.092 287.918 287.447 288.23 287.697 288.629C287.951 289.027 288.078 289.463 288.078 289.936H286.947C286.947 289.42 286.783 289.016 286.455 288.723C286.127 288.426 285.664 288.277 285.066 288.277C284.512 288.277 284.078 288.4 283.766 288.646C283.457 288.889 283.303 289.227 283.303 289.66C283.303 290.008 283.449 290.303 283.742 290.545C284.039 290.783 284.541 291.002 285.248 291.201C285.959 291.4 286.514 291.621 286.912 291.863C287.314 292.102 287.611 292.381 287.803 292.701C287.998 293.021 288.096 293.398 288.096 293.832C288.096 294.523 287.826 295.078 287.287 295.496C286.748 295.91 286.027 296.117 285.125 296.117C284.539 296.117 283.992 296.006 283.484 295.783C282.977 295.557 282.584 295.248 282.307 294.857C282.033 294.467 281.896 294.023 281.896 293.527H283.027C283.027 294.043 283.217 294.451 283.596 294.752C283.979 295.049 284.488 295.197 285.125 295.197C285.719 295.197 286.174 295.076 286.49 294.834C286.807 294.592 286.965 294.262 286.965 293.844C286.965 293.426 286.818 293.104 286.525 292.877C286.232 292.646 285.701 292.42 284.932 292.197ZM290.844 288.125V289.66H292.027V290.498H290.844V294.43C290.844 294.684 290.896 294.875 291.002 295.004C291.107 295.129 291.287 295.191 291.541 295.191C291.666 295.191 291.838 295.168 292.057 295.121V296C291.771 296.078 291.494 296.117 291.225 296.117C290.74 296.117 290.375 295.971 290.129 295.678C289.883 295.385 289.76 294.969 289.76 294.43V290.498H288.605V289.66H289.76V288.125H290.844ZM297.213 296C297.15 295.875 297.1 295.652 297.061 295.332C296.557 295.855 295.955 296.117 295.256 296.117C294.631 296.117 294.117 295.941 293.715 295.59C293.316 295.234 293.117 294.785 293.117 294.242C293.117 293.582 293.367 293.07 293.867 292.707C294.371 292.34 295.078 292.156 295.988 292.156H297.043V291.658C297.043 291.279 296.93 290.979 296.703 290.756C296.477 290.529 296.143 290.416 295.701 290.416C295.314 290.416 294.99 290.514 294.729 290.709C294.467 290.904 294.336 291.141 294.336 291.418H293.246C293.246 291.102 293.357 290.797 293.58 290.504C293.807 290.207 294.111 289.973 294.494 289.801C294.881 289.629 295.305 289.543 295.766 289.543C296.496 289.543 297.068 289.727 297.482 290.094C297.896 290.457 298.111 290.959 298.127 291.6V294.518C298.127 295.1 298.201 295.562 298.35 295.906V296H297.213ZM295.414 295.174C295.754 295.174 296.076 295.086 296.381 294.91C296.686 294.734 296.906 294.506 297.043 294.225V292.924H296.193C294.865 292.924 294.201 293.312 294.201 294.09C294.201 294.43 294.314 294.695 294.541 294.887C294.768 295.078 295.059 295.174 295.414 295.174ZM301.297 288.125V289.66H302.48V290.498H301.297V294.43C301.297 294.684 301.35 294.875 301.455 295.004C301.561 295.129 301.74 295.191 301.994 295.191C302.119 295.191 302.291 295.168 302.51 295.121V296C302.225 296.078 301.947 296.117 301.678 296.117C301.193 296.117 300.828 295.971 300.582 295.678C300.336 295.385 300.213 294.969 300.213 294.43V290.498H299.059V289.66H300.213V288.125H301.297ZM306.383 296.117C305.523 296.117 304.824 295.836 304.285 295.273C303.746 294.707 303.477 293.951 303.477 293.006V292.807C303.477 292.178 303.596 291.617 303.834 291.125C304.076 290.629 304.412 290.242 304.842 289.965C305.275 289.684 305.744 289.543 306.248 289.543C307.072 289.543 307.713 289.814 308.17 290.357C308.627 290.9 308.855 291.678 308.855 292.689V293.141H304.561C304.576 293.766 304.758 294.271 305.105 294.658C305.457 295.041 305.902 295.232 306.441 295.232C306.824 295.232 307.148 295.154 307.414 294.998C307.68 294.842 307.912 294.635 308.111 294.377L308.773 294.893C308.242 295.709 307.445 296.117 306.383 296.117ZM306.248 290.434C305.811 290.434 305.443 290.594 305.146 290.914C304.85 291.23 304.666 291.676 304.596 292.25H307.771V292.168C307.74 291.617 307.592 291.191 307.326 290.891C307.061 290.586 306.701 290.434 306.248 290.434Z" fill="black"/>
</svg>
